<?xml version="1.0" encoding="UTF-8"?>
<svg id="Layer_2" data-name="Layer 2" xmlns="http://www.w3.org/2000/svg" viewBox="0 0 244.59 207.95">
  <defs>
    <style>
      .cls-1 {
        fill: #fff;
      }

      .cls-2 {
        fill: #231f20;
      }

      .cls-3 {
        fill: #6d4aff;
      }
    </style>
  </defs>
  <g id="Layer_1-2" data-name="Layer 1">
    <g id="Layer_5" data-name="Layer 5">
      <rect class="cls-2" x="12.95" y="41.98" width="205.84" height="146.17" transform="translate(-21.39 26.6) rotate(-12)"/>
      <rect class="cls-3" x="27.72" y="19.69" width="204.31" height="142.24" transform="translate(-16.04 28.99) rotate(-12)"/>
      <path class="cls-1" d="M201.43,23.19c-.52-.53-1.07-.73-1.61-.61l-65.79,14.01c-.96.2-1.52,1.35-1.25,2.59l3.92,18.44c.26,1.2,1.23,2.02,2.19,1.82l28.61-6.08-48.56,74.77c-.3.5-.43,1.09-.3,1.68s.48,1.08.96,1.41l15.85,10.29c.93.6,2.48.27,3.1-.66l48.47-74.66,12.82,60.33c.21.98,1.37,1.53,2.6,1.27l18.48-3.93c1.2-.26,2.02-1.23,1.81-2.21l-20.75-97.63c-.06-.31-.25-.63-.54-.84h-.01Z"/>
      <path class="cls-1" d="M123.62,38.7l-85.98,18.28c-.48.1-.92.49-1.17,1.13-.19.38-.25.74-.18,1.06l20.68,97.28c.2.96,1.35,1.53,2.54,1.28l18.42-3.91c1.24-.26,2.03-1.25,1.83-2.21l-12.78-60.12,44.16,28.66c.82.55,2.02.12,2.71-.94l10.24-15.75c.67-1.03.56-2.3-.28-2.83l-44.23-28.76,48.88-10.39c.96-.2,1.55-1.35,1.29-2.57l-3.91-18.4c-.26-1.22-1.27-2.03-2.23-1.82h.01Z"/>
    </g>
  </g>
</svg>