<?xml version="1.0" encoding="UTF-8"?>
<svg id="Layer_2" data-name="Layer 2" xmlns="http://www.w3.org/2000/svg" viewBox="0 0 337.51 273.01" fill="black">
  <g id="Layer_1-2" data-name="Layer 1">
    <g>
      <path d="M337.17,117.72c-1.74-5.06-1.69-10.61-2.7-15.87-8.47-44.01-35.83-86.61-80.97-99.03-3.64-1-8.21-.98-11.33-2.82"/>
      <g>
        <path d="M122,0c.65,1.16,1.75,1.05,2.85,1.25,6.92,1.22,12.53,2.77,18.97,5.57,1.34.58,9.87,4.76,10.16,5.25.35.6.16,1.33,0,1.95-12.02,10.47-23.05,21.9-33.25,34.15-1.95.88-4.65-.94-6.77-1.4-23.72-5.08-36.38,7.11-47.42,26.46-18.89,33.11-21.1,73.99-8.08,109.66,6.95,19.05,22.83,42.64,45.01,44.36,23.39,1.81,49.31-25.16,63.53-41.36l1.39.65c5.84,7.82,12.74,15.34,20.02,21.82,4.2,3.74,8.98,3.75,6.07,9.89-5.22,10.99-21.35,28.17-31.01,35.71-48.18,37.58-112.35,16.03-142-33.43C-21.71,148.52-.62,20.02,92.73,1.25c1.08-.22,2.2-.09,2.84-1.25h26.42Z"/>
        <g>
          <path d="M242.17,0c3.12,1.85,7.69,1.82,11.33,2.82,45.14,12.42,72.49,55.02,80.97,99.03,1.01,5.26.96,10.81,2.7,15.87-.8,12.2,1.07,25.73,0,37.77-5.82,65.54-54.6,127.34-125.7,116.01-10.85-1.73-21.47-4.63-30.69-10.86-.54-.68-.3-1.22.02-1.91.6-1.29,6.42-6.74,7.86-8.52,2.82-3.48,5.85-7.42,8.44-11.07,1.77-2.48,10.18-16.8,11.09-17.28,1.09-.58,10,3.35,12.45,3.94,32.8,7.91,51.85-21,60.21-48.29,9.87-32.21,8.58-71.38-7.53-101.37-26.42-49.14-64.27-32.27-95.35.94-1.57,1.68-8.55,10.96-9.75,11.08l-1.92-.63c-8.96-12.72-20.91-22.47-33.56-31.32l.53-1.8c18.21-20.87,39.38-42.09,66.6-50.46,5.05-1.55,10.3-2.13,15.23-3.96h27.05Z"/>
          <g>
            <path d="M190.17,84.58c3.28-3.27,7.82-7.36,11.43-10.28,2.3-1.85,14.1-10.54,16.22-10.01,1.68.42,4.13,7.73,4.85,9.67,13.95,37.49,12.95,91.93-2.85,128.74-.6,1.39-2.76,6.64-3.85,6.85-2.14-.76-4.34-1.84-6.32-2.95-9.59-5.4-30.05-24.05-34.82-33.77-2.28-4.64-.63-3.94.47-7.74,3.82-13.2,10.09-28.24,6.91-41.82-1.12-4.78-7.3-17.59-6.72-20.92.42-2.42,12.19-15.28,14.67-17.76Z"/>
            <path d="M119.88,65.55c16.89,8.78,30.8,22.64,41.65,38.16-1.53,4.78-3.65,9.33-5.09,14.15-3.97,13.26-3.81,17.96,0,31.18,1.19,4.13,6.16,15.25,6.31,18.2.16,3.33-18.65,22.77-22.16,26.03-2.54,2.36-16.58,14.52-18.92,14.47-2.45-1.55-3.84-6.01-5-8.83-14.01-33.92-15.85-83.29-4.12-118.05.78-2.3,5.69-15,7.34-15.32Z"/>
          </g>
        </g>
      </g>
    </g>
  </g>
</svg>