<?xml version="1.0" encoding="UTF-8"?>
<svg id="Layer_2" data-name="Layer 2" xmlns="http://www.w3.org/2000/svg" viewBox="0 0 752.75 925.85">
  <g id="Layer_1-2" data-name="Layer 1">
    <g>
      <path d="M.8,686.78c-1.37-1.9,8.09-12.88,9.94-15.02,15.33-17.74,34.92-32.06,49.02-51.11l5.09-1.09,246.07,196.13c43.55,21.64,97.31,21.83,138.51-5.25,65.55-43.09,130.53-108.56,192.2-157.8,49.26-72.44-8.44-126.21-62.36-169.29l-112.48-14.52v-12.02s74-10.98,74-10.98c-27.81-26.77-54.9-54.55-82.94-81.06-21-19.86-42.13-40.67-65.03-57.95l-12.2,69.8-6.58-.02c-1.79-.42-2.26-1.62-2.84-3.17-5.9-15.76-6-45.47-10.43-63.6-.57-2.34,1.51-3.63-2.93-3l-100.03,84.05-66.12-60.02,1.01-5.14,109.48-90.54c49.77-31.86,117.48-27.45,162.65,10.6,63.82,53.77,129.34,123.26,189.95,182.05,31.73,30.78,62.71,52.2,81.74,94.26,32.01,70.73,15.1,148.92-36.63,204.8-65.55,48.73-127.06,109.6-193.25,156.75-86.01,61.27-190.28,53.7-272.77-8.88-69.92-53.05-140.27-113.66-208.1-169.9-7.57-6.27-16.27-13.52-24.94-18.09Z"/>
      <path d="M210.79,478.84l147,139.94,14.85-69.1,8.36.29,12.78,68.84,100.27-83.86,68.7,62.87-107,88.96c-48.2,35.76-116.01,34.29-162.99-2.94-77.87-61.72-147.37-149.26-225.03-212.97-90.64-79.71-89.68-202.16-.98-283.08,44.85-40.92,100.97-85.13,149.08-122.92,96.49-75.8,201.34-91.12,303.9-13.99l232.95,190.91-62.87,66.67-239.68-193.98c-129.18-77.66-233.41,86.26-329.39,147.29-34.37,35.3-37.8,87.95-6,126.1,5.53,6.64,55.27,53.34,59.49,54.51l111.7,16.29.68,6.96-3.15,2.88-72.68,10.34Z"/>
      <circle cx="376.09" cy="462.94" r="21.17"/>
    </g>
  </g>
</svg>
